<svg width="234" height="42" viewBox="0 0 234 42" fill="none" xmlns="http://www.w3.org/2000/svg">
<path fill-rule="evenodd" clip-rule="evenodd" d="M119 0L119 42H190.285C200.805 42 208.759 32.2174 211.413 22.0368C213.842 12.7187 219.862 3.01867 234 0C211.4 0 119 0 119 0Z" fill="white"/>
<path fill-rule="evenodd" clip-rule="evenodd" d="M115 0L115 42H43.7154C33.1946 42 25.2413 32.2174 22.587 22.0368C20.1575 12.7187 14.1382 3.01867 0 0C22.6002 0 115 0 115 0Z" fill="white"/>
<path d="M22 1H209V12C209 28.5685 195.569 42 179 42H52C35.4315 42 22 28.5685 22 12V1Z" fill="white"/>
</svg>
